name Walk5.mot
datacolumns 19
datarows 15
range 3.30700000 3.32100000
endheader

                time	   L_ground_force_vx	   L_ground_force_vy	   L_ground_force_vz	   L_ground_force_px	   L_ground_force_py	   L_ground_force_pz	   R_ground_force_vx	   R_ground_force_vy	   R_ground_force_vz	   R_ground_force_px	   R_ground_force_py	   R_ground_force_pz	   L_ground_torque_x	   L_ground_torque_y	   L_ground_torque_z	   R_ground_torque_x	   R_ground_torque_y	   R_ground_torque_z	
          3.30700000	          0.11106094	          0.28029490	          0.00371319	          0.00044290	          0.00000000	          0.00018048	          2.32753449	        890.72112512	        -66.46673690	          0.12683895	          0.00000000	          0.13120562	          0.00000000	         -0.00090882	          0.00000000	          0.00000000	         15.70006038	          0.00000000	
          3.30800000	          0.10842657	          0.27942907	          0.00445053	          0.00035821	          0.00000000	          0.00015240	          2.66607768	        890.78973508	        -66.24161898	          0.12693922	          0.00000000	          0.13123995	          0.00000000	         -0.00081227	          0.00000000	          0.00000000	         15.64519963	          0.00000000	
          3.30900000	          0.10560647	          0.27758096	          0.00510836	          0.00027937	          0.00000000	          0.00012612	          3.00193440	        890.86981914	        -66.01380597	          0.12703952	          0.00000000	          0.13127356	          0.00000000	         -0.00072086	          0.00000000	          0.00000000	         15.59028594	          0.00000000	
          3.31000000	          0.10262708	          0.27484107	          0.00569096	          0.00020618	          0.00000000	          0.00010161	          3.33529005	        890.96193684	        -65.78393610	          0.12713986	          0.00000000	          0.13130646	          0.00000000	         -0.00063449	          0.00000000	          0.00000000	         15.53534562	          0.00000000	
          3.31100000	          0.09951321	          0.27129557	          0.00620252	          0.00013843	          0.00000000	          0.00007880	          3.66633957	        891.06661688	        -65.55265071	          0.12724022	          0.00000000	          0.13133867	          0.00000000	         -0.00055307	          0.00000000	          0.00000000	         15.48040395	          0.00000000	
          3.31200000	          0.09628805	          0.26702636	          0.00664715	          0.00007592	          0.00000000	          0.00005762	          3.99528699	        891.18435553	        -65.32059222	          0.12734059	          0.00000000	          0.13137022	          0.00000000	         -0.00047649	          0.00000000	          0.00000000	         15.42548496	          0.00000000	
          3.31300000	          0.09297326	          0.26211111	          0.00702885	          0.00001844	          0.00000000	          0.00003803	          4.32234517	        891.31561476	        -65.08840187	          0.12744098	          0.00000000	          0.13140114	          0.00000000	         -0.00040461	          0.00000000	          0.00000000	         15.37061124	          0.00000000	
          3.31400000	          0.08958898	          0.25662332	          0.00735154	         -0.00003423	          0.00000000	          0.00001997	          4.64773546	        891.46082073	        -64.85671706	          0.12754136	          0.00000000	          0.13143146	          0.00000000	         -0.00033732	          0.00000000	          0.00000000	         15.31580373	          0.00000000	
          3.31500000	          0.08615392	          0.25063240	          0.00761901	         -0.00008229	          0.00000000	          0.00000336	          4.97168727	        891.62036275	        -64.62616879	          0.12764172	          0.00000000	          0.13146120	          0.00000000	         -0.00027447	          0.00000000	          0.00000000	         15.26108157	          0.00000000	
          3.31600000	          0.08268536	          0.24420377	          0.00783495	         -0.00012595	          0.00000000	         -0.00001185	          5.29443736	        891.79459268	        -64.39737948	          0.12774205	          0.00000000	          0.13149040	          0.00000000	         -0.00021593	          0.00000000	          0.00000000	         15.20646222	          0.00000000	
          3.31700000	          0.07919926	          0.23739895	          0.00800293	         -0.00016542	          0.00000000	         -0.00002572	          5.61622879	        891.98382470	        -64.17096121	          0.12784233	          0.00000000	          0.13151908	          0.00000000	         -0.00016155	          0.00000000	          0.00000000	         15.15196162	          0.00000000	
          3.31800000	          0.07571029	          0.23027562	          0.00812638	         -0.00020091	          0.00000000	         -0.00003831	          5.93730966	        892.18833542	        -63.94751442	          0.12794254	          0.00000000	          0.13154728	          0.00000000	         -0.00011119	          0.00000000	          0.00000000	         15.09759444	          0.00000000	
          3.31900000	          0.07223187	          0.22288779	          0.00820863	         -0.00023263	          0.00000000	         -0.00004969	          6.25793159	        892.40836420	        -63.72762672	          0.12804266	          0.00000000	          0.13157502	          0.00000000	         -0.00006469	          0.00000000	          0.00000000	         15.04337427	          0.00000000	
          3.32000000	          0.06877626	          0.21528586	          0.00825286	         -0.00026076	          0.00000000	         -0.00005991	          6.57834824	        892.64411382	        -63.51187167	          0.12814268	          0.00000000	          0.13160232	          0.00000000	         -0.00002189	          0.00000000	          0.00000000	         14.98931357	          0.00000000	
          3.32100000	          0.06535457	          0.20751677	          0.00826215	         -0.00028553	          0.00000000	         -0.00006904	          6.89881391	        892.89575155	        -63.30080713	          0.12824257	          0.00000000	          0.13162921	          0.00000000	          0.00001735	          0.00000000	          0.00000000	         14.93542348	          0.00000000	
